<?xml version="1.0" encoding="UTF-8" standalone="no"?>
<!-- Generator: Adobe Illustrator 16.0.0, SVG Export Plug-In . SVG Version: 6.00 Build 0)  -->

<svg
   xmlns:dc="http://purl.org/dc/elements/1.1/"
   xmlns:cc="http://creativecommons.org/ns#"
   xmlns:rdf="http://www.w3.org/1999/02/22-rdf-syntax-ns#"
   xmlns:svg="http://www.w3.org/2000/svg"
   xmlns="http://www.w3.org/2000/svg"
   xmlns:sodipodi="http://sodipodi.sourceforge.net/DTD/sodipodi-0.dtd"
   xmlns:inkscape="http://www.inkscape.org/namespaces/inkscape"
   version="1.1"
   id="Layer_1"
   x="0px"
   y="0px"
   width="32px"
   height="32px"
   viewBox="0 0 32 32"
   enable-background="new 0 0 32 32"
   xml:space="preserve"
   inkscape:version="0.91 r13725"
   sodipodi:docname="app-icon.svg"><metadata
     id="metadata17"><rdf:RDF><cc:Work
         rdf:about=""><dc:format>image/svg+xml</dc:format><dc:type
           rdf:resource="http://purl.org/dc/dcmitype/StillImage" /><dc:title></dc:title></cc:Work></rdf:RDF></metadata><defs
     id="defs15" /><sodipodi:namedview
     pagecolor="#ffffff"
     bordercolor="#666666"
     borderopacity="1"
     objecttolerance="10"
     gridtolerance="10"
     guidetolerance="10"
     inkscape:pageopacity="0"
     inkscape:pageshadow="2"
     inkscape:window-width="1920"
     inkscape:window-height="1056"
     id="namedview13"
     showgrid="false"
     inkscape:zoom="7.375"
     inkscape:cx="-5.1525424"
     inkscape:cy="16"
     inkscape:window-x="0"
     inkscape:window-y="24"
     inkscape:window-maximized="1"
     inkscape:current-layer="Layer_1" /><path
     fill="#FFFFFF"
     d="M11,6 M5,6.125C3.292,6.125,2,8.13,2,10v16c0,2.216,1.784,4,4,4h20c2.216,0,4-1.784,4-4V10  c0-1.87-1.271-3.875-3-3.875 M27.167,26.896h-22V9.104h22V26.896z"
     id="path3"
     style="fill:#000000;fill-opacity:1" /><path
     fill="#FFFFFF"
     d="M25.75,12.062c0,0.265-0.215,0.479-0.479,0.479H7.188c-0.265,0-0.479-0.215-0.479-0.479l0,0  c0-0.265,0.214-0.479,0.479-0.479h18.083C25.535,11.583,25.75,11.797,25.75,12.062L25.75,12.062z"
     id="path5"
     style="fill:#000000;fill-opacity:1" /><path
     fill="#FFFFFF"
     d="M25.75,16.021c0,0.265-0.215,0.479-0.479,0.479H7.188c-0.265,0-0.479-0.214-0.479-0.479l0,0  c0-0.265,0.214-0.479,0.479-0.479h18.083C25.535,15.542,25.75,15.756,25.75,16.021L25.75,16.021z"
     id="path7"
     style="fill:#000000;fill-opacity:1" /><path
     fill="#FFFFFF"
     d="M25.75,19.979c0,0.266-0.215,0.48-0.479,0.48H7.188c-0.265,0-0.479-0.215-0.479-0.48l0,0  c0-0.264,0.214-0.479,0.479-0.479h18.083C25.535,19.5,25.75,19.715,25.75,19.979L25.75,19.979z"
     id="path9"
     style="fill:#000000;fill-opacity:1" /><path
     fill="#FFFFFF"
     d="M25.75,23.938c0,0.266-0.215,0.48-0.479,0.48H7.188c-0.265,0-0.479-0.215-0.479-0.48l0,0  c0-0.264,0.214-0.479,0.479-0.479h18.083C25.535,23.459,25.75,23.674,25.75,23.938L25.75,23.938z"
     id="path11"
     style="fill:#000000;fill-opacity:1" /></svg>